<svg version="1" xmlns="http://www.w3.org/2000/svg" width="933.333" height="933.333" viewBox="0 0 700.000000 700.000000"><path d="M329.8.5c-.2.1-4.1.5-8.8.9-10 .7-22.5 2.2-29.5 3.6-2.7.5-6.1 1.2-7.5 1.4-35.8 6.5-73.5 20.4-105.9 38.9-36.9 21-63.6 43.1-94.5 77.7-16.1 18.1-37.4 51.1-50 77.5-11.8 24.6-22.4 57.2-27.2 83-.9 4.9-1.7 9.7-1.9 10.5-.2.9-.6 4.3-1 7.5-.4 3.3-.9 6.9-1.1 8-1.2 6.1-1.9 22.6-1.8 42 0 28.4 1.4 42 6.9 70.5 2 10.2 9.9 38.7 12.4 44.5.5 1.1 1.4 3.6 2.1 5.5.7 1.9 1.9 4.9 2.6 6.7.8 1.7 1.4 3.4 1.4 3.7 0 1 5.9 13.8 11.7 25.1C79 589.2 150 651.2 236.2 680.9c20.6 7 50.3 14.1 66 15.7 3.5.3 6.5.7 6.8.9 2.9 1.8 53.5 2.6 71 1.2 11.3-1 12.4-1.1 31-4.3 34-5.8 70.2-18 100.9-34.1 5.8-3.1 12.2-6.6 14.1-7.9 1.9-1.3 3.8-2.4 4.1-2.4 1.3 0 26.3-17.2 35.4-24.3 15.9-12.4 38.7-34.1 49-46.7 2.1-2.5 4.1-4.7 4.4-5 .4-.3 4.3-5.2 8.7-11.1 33.6-44.2 55-91.8 65.8-146 1.4-7 2.8-15.5 3.2-19 .3-3.5.8-6.7 1-7 .9-1.7 1.9-21.4 1.8-39.9 0-24.6-1.2-42.2-3.9-57-5.9-32.1-9.9-46.4-20.2-73-20.2-52-57.1-103.1-99.8-138.5-3.3-2.8-6.2-5.3-6.5-5.6-1.3-1.5-20.5-15.2-29.5-21.1-35-22.7-76.4-39.8-117.2-48.3-10-2-24.7-4.3-39.3-6-5.5-.7-52.6-1.6-53.2-1zm2.7 127.9c18.5 3.8 35.5 11.3 49.3 21.5 9.2 6.9 173.6 171 178.2 177.9 8.5 12.9 8.4 31.5-.4 44.7-4.8 7.3-168 170.3-177.4 177.3-9.6 7.1-21.7 13.5-32.8 17.2-4.6 1.6-8.4 2.7-8.4 2.5 0-.3-1.2 0-2.6.5-7.4 2.9-34.9 3.6-46.9 1.3-40.5-7.7-73-34.6-88-72.7-3-7.6-5-15.2-7.2-27.6-1-5.4-.9-23.7.1-30 1.8-10.6 2.7-14.6 5.7-23.1 7.2-21 16.8-34.1 44.2-60.7 3.7-3.6 6.6-6.9 6.5-7.3-.2-.4-7.5-8.1-16.3-17.1-8.8-9-18.1-19.5-20.6-23.3-13.3-20.1-19.9-41.1-20.3-64.5-.9-50.1 31.5-95.7 79.7-112.1 13-4.4 22.2-5.7 38.7-5.4 8.5.1 16.9.5 18.5.9z"/></svg>